<svg xmlns="http://www.w3.org/2000/svg" xmlns:xlink="http://www.w3.org/1999/xlink" viewBox="0 0 512 512" width="512" height="512" preserveAspectRatio="xMidYMid meet" style="width: 100%; height: 100%; transform: translate3d(0px, 0px, 0px); content-visibility: visible;"><defs><clipPath id="__lottie_element_6665"><rect width="512" height="512" x="0" y="0"></rect></clipPath></defs><g clip-path="url(#__lottie_element_6665)"><g transform="matrix(1.0000019073486328,0.000002450241936458042,-0.000002450241936458042,1.0000019073486328,255.99981689453125,256.0006103515625)" opacity="1" style="display: block;"><g opacity="1" transform="matrix(1,0,0,1,0,0)"><path fill="rgb(255,255,255)" fill-opacity="1" d=" M-29.349000930786133,-149.8040008544922 C-29.349000930786133,-149.8040008544922 -218.20199584960938,-128.55799865722656 -218.20199584960938,-128.55799865722656 C-215.7429962158203,-48.138999938964844 -205.5989990234375,29.4689998626709 -185.56900024414062,103.45800018310547 C-185.56900024414062,103.45800018310547 7.318999767303467,71.0459976196289 7.318999767303467,71.0459976196289 C-17.225000381469727,-18.979000091552734 -33.51499938964844,-98.34300231933594 -29.349000930786133,-149.8040008544922z"></path><path stroke-linecap="round" stroke-linejoin="round" fill-opacity="0" stroke="rgb(0,0,0)" stroke-opacity="1" stroke-width="2" d=" M-29.349000930786133,-149.8040008544922 C-29.349000930786133,-149.8040008544922 -218.20199584960938,-128.55799865722656 -218.20199584960938,-128.55799865722656 C-215.7429962158203,-48.138999938964844 -205.5989990234375,29.4689998626709 -185.56900024414062,103.45800018310547 C-185.56900024414062,103.45800018310547 7.318999767303467,71.0459976196289 7.318999767303467,71.0459976196289 C-17.225000381469727,-18.979000091552734 -33.51499938964844,-98.34300231933594 -29.349000930786133,-149.8040008544922z"></path></g><g opacity="1" transform="matrix(1,0,0,1,0,0)"><path fill="rgb(0,0,0)" fill-opacity="1" d=" M-48.83100128173828,-129.26600646972656 C-48.83100128173828,-129.26600646972656 -31.677000045776367,5.749000072479248 56.957000732421875,58.198001861572266 C56.957000732421875,58.198001861572266 -153.24400329589844,106.16200256347656 -153.24400329589844,106.16200256347656 C-153.24400329589844,106.16200256347656 -174.218994140625,55.86899948120117 -182.072998046875,15.277999877929688 C-199.26199340820312,-73.552001953125 -190.61099243164062,-112.19599914550781 -190.61099243164062,-112.19599914550781 C-190.61099243164062,-112.19599914550781 -48.83100128173828,-129.26600646972656 -48.83100128173828,-129.26600646972656z"></path></g><g opacity="1" transform="matrix(1,0,0,1,0,0)"><path fill="rgb(194,249,99)" fill-opacity="1" d=" M-48.83100128173828,-129.26600646972656 C-48.83100128173828,-129.26600646972656 -17.83799934387207,5.75 76.1709976196289,58.19900131225586 C76.1709976196289,58.19900131225586 -129.11300659179688,106.16200256347656 -129.11300659179688,106.16200256347656 C-129.11300659179688,106.16200256347656 -161.2209930419922,56.0620002746582 -172.60000610351562,15.35099983215332 C-196.73399353027344,-70.99500274658203 -190.61099243164062,-112.19599914550781 -190.61099243164062,-112.19599914550781 C-190.61099243164062,-112.19599914550781 -48.83100128173828,-129.26600646972656 -48.83100128173828,-129.26600646972656z"></path></g><g opacity="1" transform="matrix(1,0,0,1,0,0)"><path fill="rgb(212,232,232)" fill-opacity="1" d=" M-48.82899856567383,-129.26699829101562 C-48.82899856567383,-129.26699829101562 -193.14199829101562,-111.6729965209961 -193.14199829101562,-111.6729965209961 C-193.14199829101562,-111.6729965209961 -196.6219940185547,-130.97500610351562 -196.6219940185547,-130.97500610351562 C-197.33700561523438,-134.93899536132812 -194.55599975585938,-138.6840057373047 -190.5540008544922,-139.14500427246094 C-190.5540008544922,-139.14500427246094 -153.0030059814453,-143.47500610351562 -153.0030059814453,-143.47500610351562 C-153.093994140625,-143.9320068359375 -153.1439971923828,-144.39700317382812 -153.18600463867188,-144.8699951171875 C-154.0659942626953,-156.3040008544922 -141.69400024414062,-169.20700073242188 -124.98799896240234,-170.5019989013672 C-108.29000091552734,-171.7969970703125 -94.03299713134766,-163.57699584960938 -93.13600158691406,-152.15199279785156 C-93.08599853515625,-151.5540008544922 -93.0780029296875,-150.96400451660156 -93.11900329589844,-150.38299560546875 C-93.11900329589844,-150.38299560546875 -59.15599822998047,-154.29299926757812 -59.15599822998047,-154.29299926757812 C-55.387001037597656,-154.7270050048828 -51.96099853515625,-152.07000732421875 -51.44499969482422,-148.31100463867188 C-51.44499969482422,-148.31100463867188 -48.82899856567383,-129.26699829101562 -48.82899856567383,-129.26699829101562z"></path><path stroke-linecap="round" stroke-linejoin="round" fill-opacity="0" stroke="rgb(0,0,0)" stroke-opacity="1" stroke-width="2" d=" M-48.82899856567383,-129.26699829101562 C-48.82899856567383,-129.26699829101562 -193.14199829101562,-111.6729965209961 -193.14199829101562,-111.6729965209961 C-193.14199829101562,-111.6729965209961 -196.6219940185547,-130.97500610351562 -196.6219940185547,-130.97500610351562 C-197.33700561523438,-134.93899536132812 -194.55599975585938,-138.6840057373047 -190.5540008544922,-139.14500427246094 C-190.5540008544922,-139.14500427246094 -153.0030059814453,-143.47500610351562 -153.0030059814453,-143.47500610351562 C-153.093994140625,-143.9320068359375 -153.1439971923828,-144.39700317382812 -153.18600463867188,-144.8699951171875 C-154.0659942626953,-156.3040008544922 -141.69400024414062,-169.20700073242188 -124.98799896240234,-170.5019989013672 C-108.29000091552734,-171.7969970703125 -94.03299713134766,-163.57699584960938 -93.13600158691406,-152.15199279785156 C-93.08599853515625,-151.5540008544922 -93.0780029296875,-150.96400451660156 -93.11900329589844,-150.38299560546875 C-93.11900329589844,-150.38299560546875 -59.15599822998047,-154.29299926757812 -59.15599822998047,-154.29299926757812 C-55.387001037597656,-154.7270050048828 -51.96099853515625,-152.07000732421875 -51.44499969482422,-148.31100463867188 C-51.44499969482422,-148.31100463867188 -48.82899856567383,-129.26699829101562 -48.82899856567383,-129.26699829101562z"></path></g><g opacity="1" transform="matrix(1,0,0,1,0,0)"><path fill="rgb(255,255,255)" fill-opacity="1" d=" M-116.8030014038086,-152.52200317382812 C-116.8030014038086,-149.0780029296875 -119.9520034790039,-146.28599548339844 -123.83699798583984,-146.28599548339844 C-127.72200012207031,-146.28599548339844 -130.8719940185547,-149.0780029296875 -130.8719940185547,-152.52200317382812 C-130.8719940185547,-155.96600341796875 -127.72200012207031,-158.7570037841797 -123.83699798583984,-158.7570037841797 C-119.9520034790039,-158.7570037841797 -116.8030014038086,-155.96600341796875 -116.8030014038086,-152.52200317382812z"></path><path stroke-linecap="round" stroke-linejoin="round" fill-opacity="0" stroke="rgb(0,0,0)" stroke-opacity="1" stroke-width="2" d=" M-116.8030014038086,-152.52200317382812 C-116.8030014038086,-149.0780029296875 -119.9520034790039,-146.28599548339844 -123.83699798583984,-146.28599548339844 C-127.72200012207031,-146.28599548339844 -130.8719940185547,-149.0780029296875 -130.8719940185547,-152.52200317382812 C-130.8719940185547,-155.96600341796875 -127.72200012207031,-158.7570037841797 -123.83699798583984,-158.7570037841797 C-119.9520034790039,-158.7570037841797 -116.8030014038086,-155.96600341796875 -116.8030014038086,-152.52200317382812z"></path></g></g><g transform="matrix(1,0,0,1,256,256)" opacity="1" style="display: block;"><g opacity="1" transform="matrix(1,0,0,1,0,0)"><path stroke-linecap="round" stroke-linejoin="round" fill-opacity="0" stroke="rgb(0,0,0)" stroke-opacity="1" stroke-width="3" d=" M-173.9459991455078,-68.28199768066406 C-173.9459991455078,-68.28199768066406 -167.3820037841797,-62.34000015258789 -167.3820037841797,-62.34000015258789 C-167.3820037841797,-62.34000015258789 -144.9929962158203,-87.13099670410156 -144.9929962158203,-87.13099670410156"></path></g><g opacity="1" transform="matrix(1,0,0,1,0,0)"><path stroke-linecap="round" stroke-linejoin="round" fill-opacity="0" stroke="rgb(0,0,0)" stroke-opacity="1" stroke-width="3" d=" M-162.5070037841797,-29.11400032043457 C-162.5070037841797,-29.11400032043457 -155.9429931640625,-23.17300033569336 -155.9429931640625,-23.17300033569336 C-155.9429931640625,-23.17300033569336 -133.5540008544922,-47.9640007019043 -133.5540008544922,-47.9640007019043"></path></g><g opacity="1" transform="matrix(1,0,0,1,0,0)"><path stroke-linecap="round" stroke-linejoin="round" fill-opacity="0" stroke="rgb(0,0,0)" stroke-opacity="1" stroke-width="3" d=" M-151.0679931640625,10.053000450134277 C-151.0679931640625,10.053000450134277 -144.50399780273438,15.994000434875488 -144.50399780273438,15.994000434875488 C-144.50399780273438,15.994000434875488 -122.11499786376953,-8.795999526977539 -122.11499786376953,-8.795999526977539"></path></g><g opacity="1" transform="matrix(1,0,0,1,0,0)"><path stroke-linecap="round" stroke-linejoin="round" fill-opacity="0" stroke="rgb(0,0,0)" stroke-opacity="1" stroke-width="3" d=" M-138.38099670410156,54.53099822998047 C-138.38099670410156,54.53099822998047 -131.31500244140625,59.86600112915039 -131.31500244140625,59.86600112915039 C-131.31500244140625,59.86600112915039 -111.21600341796875,33.18600082397461 -111.21600341796875,33.18600082397461"></path></g></g><g transform="matrix(1,0,0,1,256,256)" opacity="1" style="display: block;"><g opacity="1" transform="matrix(1,0,0,1,0,0)"><path stroke-linecap="round" stroke-linejoin="round" fill-opacity="0" stroke="rgb(0,0,0)" stroke-opacity="1" stroke-width="3" d=" M-132.08999633789062,-83.62899780273438 C-132.08999633789062,-83.62899780273438 -73.95700073242188,-93.47799682617188 -57.569000244140625,-96.25399780273438"></path></g><g opacity="1" transform="matrix(1,0,0,1,0,0)"><path stroke-linecap="round" stroke-linejoin="round" fill-opacity="0" stroke="rgb(0,0,0)" stroke-opacity="1" stroke-width="3" d=" M-128.98300170898438,-73.552001953125 C-128.98300170898438,-73.552001953125 -94.01799774169922,-79.17500305175781 -84.16200256347656,-80.76100158691406"></path></g><g opacity="1" transform="matrix(1,0,0,1,0,0)"><path stroke-linecap="round" stroke-linejoin="round" fill-opacity="0" stroke="rgb(0,0,0)" stroke-opacity="1" stroke-width="3" d=" M-120.6510009765625,-44.46200180053711 C-120.6510009765625,-44.46200180053711 -62.518001556396484,-54.310001373291016 -46.130001068115234,-57.08599853515625"></path></g><g opacity="1" transform="matrix(1,0,0,1,0,0)"><path stroke-linecap="round" stroke-linejoin="round" fill-opacity="0" stroke="rgb(0,0,0)" stroke-opacity="1" stroke-width="3" d=" M-117.54399871826172,-34.38399887084961 C-117.54399871826172,-34.38399887084961 -82.5790023803711,-40.00699996948242 -72.7229995727539,-41.59299850463867"></path></g><g opacity="1" transform="matrix(1,0,0,1,0,0)"><path stroke-linecap="round" stroke-linejoin="round" fill-opacity="0" stroke="rgb(0,0,0)" stroke-opacity="1" stroke-width="3" d=" M-109.21199798583984,-5.295000076293945 C-109.21199798583984,-5.295000076293945 -51.07899856567383,-15.142999649047852 -34.691001892089844,-17.91900062561035"></path></g><g opacity="1" transform="matrix(1,0,0,1,0,0)"><path stroke-linecap="round" stroke-linejoin="round" fill-opacity="0" stroke="rgb(0,0,0)" stroke-opacity="1" stroke-width="3" d=" M-106.1050033569336,4.7829999923706055 C-106.1050033569336,4.7829999923706055 -71.13999938964844,-0.8399999737739563 -61.284000396728516,-2.4260001182556152"></path></g><g opacity="1" transform="matrix(1,0,0,1,0,0)"><path stroke-linecap="round" stroke-linejoin="round" fill-opacity="0" stroke="rgb(0,0,0)" stroke-opacity="1" stroke-width="3" d=" M-98.0530014038086,35.52799987792969 C-98.0530014038086,35.52799987792969 -29.395000457763672,17.503000259399414 -10.041000366210938,12.42199993133545"></path></g><g opacity="1" transform="matrix(1,0,0,1,0,0)"><path stroke-linecap="round" stroke-linejoin="round" fill-opacity="0" stroke="rgb(0,0,0)" stroke-opacity="1" stroke-width="3" d=" M-94.06300354003906,45.290000915527344 C-94.06300354003906,45.290000915527344 -48.108001708984375,33.53099822998047 -35.15299987792969,30.215999603271484"></path></g></g><g transform="matrix(0.9848729372024536,-0.17327822744846344,0.17327822744846344,0.9848729372024536,254.39340209960938,275.360595703125)" opacity="1" style="display: block;"><g opacity="1" transform="matrix(1,0,0,1,0,0)"><g opacity="1" transform="matrix(1,0,0,1,0,0)"><path fill="rgb(255,255,255)" fill-opacity="1" d=" M-18.638999938964844,-9.409000396728516 C-18.638999938964844,-9.409000396728516 -26.893999099731445,-19.101999282836914 -30.42099952697754,-20.415000915527344 C-33.948001861572266,-21.72800064086914 -45.507999420166016,-23.85099983215332 -45.84400177001953,-19.81999969482422 C-46.18000030517578,-15.788999557495117 -32.016998291015625,-8.651000022888184 -32.016998291015625,-8.651000022888184 C-32.016998291015625,-8.651000022888184 -18.638999938964844,-9.409000396728516 -18.638999938964844,-9.409000396728516z"></path><path stroke-linecap="round" stroke-linejoin="round" fill-opacity="0" stroke="rgb(0,0,0)" stroke-opacity="1" stroke-width="2" d=" M-18.638999938964844,-9.409000396728516 C-18.638999938964844,-9.409000396728516 -26.893999099731445,-19.101999282836914 -30.42099952697754,-20.415000915527344 C-33.948001861572266,-21.72800064086914 -45.507999420166016,-23.85099983215332 -45.84400177001953,-19.81999969482422 C-46.18000030517578,-15.788999557495117 -32.016998291015625,-8.651000022888184 -32.016998291015625,-8.651000022888184 C-32.016998291015625,-8.651000022888184 -18.638999938964844,-9.409000396728516 -18.638999938964844,-9.409000396728516z"></path></g><g opacity="1" transform="matrix(1,0,0,1,0,0)"><path fill="rgb(255,255,255)" fill-opacity="1" d=" M1.284999966621399,39.5099983215332 C1.284999966621399,39.5099983215332 -11.418999671936035,7.136000156402588 -11.418999671936035,7.136000156402588 C-11.418999671936035,7.136000156402588 -14.77299976348877,-9.11299991607666 -21.575000762939453,-11.380000114440918 C-28.37700080871582,-13.647000312805176 -31.343000411987305,-9.456000328063965 -42.904998779296875,-18.812000274658203 C-48.49100112915039,-23.332000732421875 -56.676998138427734,-20.827999114990234 -51.185001373291016,-12.274999618530273 C-42.92300033569336,0.5899999737739563 -23.4689998626709,8.133000373840332 -27.363000869750977,14.152999877929688 C-28.878000259399414,16.4950008392334 -38.55699920654297,15.390000343322754 -42.358001708984375,11.102999687194824 C-46.808998107910156,6.084000110626221 -51.917999267578125,-4.833000183105469 -57.85300064086914,-5.964000225067139 C-63.78799819946289,-7.09499979019165 -59.99399948120117,12.930000305175781 -52.310001373291016,27.79400062561035 C-44.625999450683594,42.65800094604492 -32.244998931884766,57.18600082397461 -32.244998931884766,57.18600082397461 C-32.244998931884766,57.18600082397461 1.284999966621399,39.5099983215332 1.284999966621399,39.5099983215332z"></path><path stroke-linecap="round" stroke-linejoin="round" fill-opacity="0" stroke="rgb(0,0,0)" stroke-opacity="1" stroke-width="2" d=" M1.284999966621399,39.5099983215332 C1.284999966621399,39.5099983215332 -11.418999671936035,7.136000156402588 -11.418999671936035,7.136000156402588 C-11.418999671936035,7.136000156402588 -14.77299976348877,-9.11299991607666 -21.575000762939453,-11.380000114440918 C-28.37700080871582,-13.647000312805176 -31.343000411987305,-9.456000328063965 -42.904998779296875,-18.812000274658203 C-48.49100112915039,-23.332000732421875 -56.676998138427734,-20.827999114990234 -51.185001373291016,-12.274999618530273 C-42.92300033569336,0.5899999737739563 -23.4689998626709,8.133000373840332 -27.363000869750977,14.152999877929688 C-28.878000259399414,16.4950008392334 -38.55699920654297,15.390000343322754 -42.358001708984375,11.102999687194824 C-46.808998107910156,6.084000110626221 -51.917999267578125,-4.833000183105469 -57.85300064086914,-5.964000225067139 C-63.78799819946289,-7.09499979019165 -59.99399948120117,12.930000305175781 -52.310001373291016,27.79400062561035 C-44.625999450683594,42.65800094604492 -32.244998931884766,57.18600082397461 -32.244998931884766,57.18600082397461 C-32.244998931884766,57.18600082397461 1.284999966621399,39.5099983215332 1.284999966621399,39.5099983215332z"></path></g><g opacity="1" transform="matrix(1,0,0,1,0,0)"><path fill="rgb(0,0,0)" fill-opacity="1" d=" M14.197999954223633,28.88599967956543 C12.628999710083008,31.785999298095703 10.145999908447266,33.70899963378906 6.318999767303467,31.638999938964844 C6.318999767303467,31.638999938964844 6.239999771118164,31.597000122070312 6.239999771118164,31.597000122070312 C6.239999771118164,31.597000122070312 -72.1050033569336,-11.6899995803833 -72.1050033569336,-11.6899995803833 C-72.54399871826172,-11.935999870300293 -72.95700073242188,-12.251999855041504 -73.29000091552734,-12.609999656677246 C-73.29000091552734,-12.609999656677246 -78.2300033569336,-17.910999298095703 -78.2300033569336,-17.910999298095703 C-80.36699676513672,-20.202999114990234 -78.85199737548828,-23.0049991607666 -75.76399993896484,-22.47100067138672 C-75.76399993896484,-22.47100067138672 -68.62300109863281,-21.238000869750977 -68.62300109863281,-21.238000869750977 C-68.14099884033203,-21.155000686645508 -67.6500015258789,-20.983999252319336 -67.2040023803711,-20.750999450683594 C-67.2040023803711,-20.750999450683594 11.91100025177002,21.111000061035156 11.91100025177002,21.111000061035156 C15.791000366210938,23.16699981689453 15.777000427246094,25.965999603271484 14.197999954223633,28.88599967956543z"></path></g></g><g opacity="1" transform="matrix(1,0,0,1,0,0)"><path fill="rgb(246,83,138)" fill-opacity="1" d=" M111.12699890136719,20.086999893188477 C111.12699890136719,20.086999893188477 98.34600067138672,15.317999839782715 78.9280014038086,17.621000289916992 C46.22600173950195,21.5 49.68600082397461,89.86100006103516 28.0310001373291,86.3949966430664 C13.472000122070312,84.06500244140625 3.5880000591278076,35.39400100708008 3.5880000591278076,35.39400100708008 C3.5880000591278076,35.39400100708008 -37.433998107910156,59.31700134277344 -37.433998107910156,59.31700134277344 C-37.433998107910156,59.31700134277344 -17.77400016784668,134.87899780273438 21.774999618530273,139.22300720214844 C68.28199768066406,144.33099365234375 104.85800170898438,59.46500015258789 104.85800170898438,59.46500015258789 C104.85800170898438,59.46500015258789 111.12699890136719,20.086999893188477 111.12699890136719,20.086999893188477z"></path></g><g opacity="1" transform="matrix(1,0,0,1,0,0)"><path stroke-linecap="round" stroke-linejoin="round" fill-opacity="0" stroke="rgb(0,0,0)" stroke-opacity="1" stroke-width="2" d=" M28.0310001373291,86.3949966430664 C13.472000122070312,84.06500244140625 3.5880000591278076,35.39400100708008 3.5880000591278076,35.39400100708008 C3.5880000591278076,35.39400100708008 -37.433998107910156,59.31700134277344 -37.433998107910156,59.31700134277344"></path></g></g><g transform="matrix(1,0,0,1,256,256)" opacity="1" style="display: block;"><g opacity="1" transform="matrix(1,0,0,1,0,0)"><path fill="rgb(246,83,138)" fill-opacity="1" d=" M125.33100128173828,21.260000228881836 C125.33100128173828,21.260000228881836 178.34300231933594,28.226999282836914 178.34300231933594,28.226999282836914 C188.9600067138672,29.621999740600586 196.63499450683594,39.07099914550781 195.82200622558594,49.74800109863281 C192.906005859375,88.03099822998047 187.9029998779297,163.78500366210938 184.45399475097656,166.47300720214844 C137.43299865722656,203.1219940185547 59.40800094604492,182.5189971923828 57.21900177001953,171.31399536132812 C54.92100143432617,159.5540008544922 69.74800109863281,73.31400299072266 77.98300170898438,34.676998138427734 C80.11799621582031,24.660999298095703 89.41999816894531,17.84000015258789 99.61499786376953,18.81100082397461 C99.61499786376953,18.81100082397461 125.33100128173828,21.260000228881836 125.33100128173828,21.260000228881836z"></path></g><g opacity="1" transform="matrix(1,0,0,1,0,0)"><path fill="rgb(255,255,255)" fill-opacity="1" d=" M129.5,120.875 C121.58799743652344,118.44499969482422 110.96099853515625,121.94100189208984 112.7300033569336,129.1510009765625 C112.7300033569336,129.1510009765625 116.56700134277344,135.5959930419922 125.6449966430664,135.36599731445312"></path><path stroke-linecap="round" stroke-linejoin="round" fill-opacity="0" stroke="rgb(0,0,0)" stroke-opacity="1" stroke-width="2" d=" M129.5,120.875 C121.58799743652344,118.44499969482422 110.96099853515625,121.94100189208984 112.7300033569336,129.1510009765625 C112.7300033569336,129.1510009765625 116.56700134277344,135.5959930419922 125.6449966430664,135.36599731445312"></path></g><g opacity="1" transform="matrix(1,0,0,1,0,0)"><path fill="rgb(0,0,0)" fill-opacity="1" d=" M113.05999755859375,173.19500732421875 C113.05999755859375,173.19500732421875 93.50900268554688,177.0919952392578 93.50900268554688,177.0919952392578 C85.55899810791016,178.677001953125 77.8290023803711,173.51699829101562 76.24400329589844,165.56700134277344 C76.24400329589844,165.56700134277344 67.05699920654297,119.48699951171875 67.05699920654297,119.48699951171875 C65.47200012207031,111.53700256347656 70.63300323486328,103.80599975585938 78.58300018310547,102.22100067138672 C78.58300018310547,102.22100067138672 98.13400268554688,98.3239974975586 98.13400268554688,98.3239974975586 C106.08399963378906,96.73899841308594 113.81400299072266,101.89900207519531 115.39900207519531,109.8489990234375 C115.39900207519531,109.8489990234375 124.58599853515625,155.92999267578125 124.58599853515625,155.92999267578125 C126.1709976196289,163.8800048828125 121.01000213623047,171.61000061035156 113.05999755859375,173.19500732421875z"></path></g><g opacity="1" transform="matrix(1,0,0,1,0,0)"><path fill="rgb(255,255,255)" fill-opacity="1" d=" M129.5,120.875 C137.18899536132812,123.2239990234375 150.27200317382812,129.63800048828125 150.27200317382812,129.63800048828125 C150.27200317382812,129.63800048828125 147.9499969482422,163.60800170898438 147.9499969482422,163.60800170898438 C147.9499969482422,163.60800170898438 131.66600036621094,167.90899658203125 122.97100067138672,167.59800720214844 C114.2760009765625,167.26699829101562 115.90299987792969,160.68499755859375 115.90299987792969,160.68499755859375 C115.90299987792969,160.68499755859375 109.72000122070312,158.75999450683594 108.5250015258789,155.9720001220703 C107.31700134277344,153.1699981689453 109.71299743652344,150.82899475097656 109.71299743652344,150.82899475097656 C109.71299743652344,150.82899475097656 104.76399993896484,149.6269989013672 103.447998046875,146.02200317382812 C102.13800048828125,142.41700744628906 106.0199966430664,140.73599243164062 106.0199966430664,140.73599243164062 C104.02200317382812,140.65499877929688 96.6709976196289,136.8470001220703 99.20899963378906,131.54100036621094 C101.73400115966797,126.23500061035156 122.97699737548828,127.73999786376953 122.97699737548828,127.73999786376953"></path><path stroke-linecap="round" stroke-linejoin="round" fill-opacity="0" stroke="rgb(0,0,0)" stroke-opacity="1" stroke-width="2" d=" M129.5,120.875 C137.18899536132812,123.2239990234375 150.27200317382812,129.63800048828125 150.27200317382812,129.63800048828125 C150.27200317382812,129.63800048828125 147.9499969482422,163.60800170898438 147.9499969482422,163.60800170898438 C147.9499969482422,163.60800170898438 131.66600036621094,167.90899658203125 122.97100067138672,167.59800720214844 C114.2760009765625,167.26699829101562 115.90299987792969,160.68499755859375 115.90299987792969,160.68499755859375 C115.90299987792969,160.68499755859375 109.72000122070312,158.75999450683594 108.5250015258789,155.9720001220703 C107.31700134277344,153.1699981689453 109.71299743652344,150.82899475097656 109.71299743652344,150.82899475097656 C109.71299743652344,150.82899475097656 104.76399993896484,149.6269989013672 103.447998046875,146.02200317382812 C102.13800048828125,142.41700744628906 106.0199966430664,140.73599243164062 106.0199966430664,140.73599243164062 C104.02200317382812,140.65499877929688 96.6709976196289,136.8470001220703 99.20899963378906,131.54100036621094 C101.73400115966797,126.23500061035156 122.97699737548828,127.73999786376953 122.97699737548828,127.73999786376953"></path></g><g opacity="1" transform="matrix(1,0,0,1,0,0)"><path fill="rgb(255,255,255)" fill-opacity="1" d=" M116.3489990234375,160.5800018310547 C116.3489990234375,160.5800018310547 119.99099731445312,160.6699981689453 123.42400360107422,159.8040008544922"></path><path stroke-linecap="round" stroke-linejoin="round" fill-opacity="0" stroke="rgb(0,0,0)" stroke-opacity="1" stroke-width="2" d=" M116.3489990234375,160.5800018310547 C116.3489990234375,160.5800018310547 119.99099731445312,160.6699981689453 123.42400360107422,159.8040008544922"></path></g><g opacity="1" transform="matrix(1,0,0,1,0,0)"><path fill="rgb(255,255,255)" fill-opacity="1" d=" M106.01799774169922,140.73699951171875 C106.01799774169922,140.73699951171875 110.5770034790039,141.8719940185547 115.03700256347656,140.64700317382812"></path><path stroke-linecap="round" stroke-linejoin="round" fill-opacity="0" stroke="rgb(0,0,0)" stroke-opacity="1" stroke-width="2" d=" M106.01799774169922,140.73699951171875 C106.01799774169922,140.73699951171875 110.5770034790039,141.8719940185547 115.03700256347656,140.64700317382812"></path></g><g opacity="1" transform="matrix(1,0,0,1,0,0)"><path fill="rgb(255,255,255)" fill-opacity="1" d=" M109.71499633789062,150.8260040283203 C109.71499633789062,150.8260040283203 112.53500366210938,152.65899658203125 117.5739974975586,150.0570068359375"></path><path stroke-linecap="round" stroke-linejoin="round" fill-opacity="0" stroke="rgb(0,0,0)" stroke-opacity="1" stroke-width="2" d=" M109.71499633789062,150.8260040283203 C109.71499633789062,150.8260040283203 112.53500366210938,152.65899658203125 117.5739974975586,150.0570068359375"></path></g><g opacity="1" transform="matrix(1,0,0,1,0,0)"><path fill="rgb(246,83,138)" fill-opacity="1" d=" M180.30799865722656,28.80299949645996 C180.30799865722656,28.80299949645996 180.30799865722656,28.80299949645996 180.30799865722656,28.80299949645996 C197.98599243164062,30.604000091552734 213.9320068359375,40.1619987487793 223.91099548339844,54.8650016784668 C238.4320068359375,76.26000213623047 255.50999450683594,107.78600311279297 248.28900146484375,129.56399536132812 C235.56300354003906,167.9429931640625 148.0919952392578,166.73699951171875 148.0919952392578,166.73699951171875 C148.0919952392578,166.73699951171875 142.9969940185547,120.69599914550781 142.9969940185547,120.69599914550781 C142.9969940185547,120.69599914550781 206.74200439453125,112.39600372314453 206.74200439453125,112.39600372314453 C206.74200439453125,112.39600372314453 177.69000244140625,80.6760025024414 174.4149932861328,64.55899810791016 C172.4239959716797,54.762001037597656 180.30799865722656,28.80299949645996 180.30799865722656,28.80299949645996z"></path></g><g opacity="1" transform="matrix(1,0,0,1,0,0)"><path fill="rgb(255,255,255)" fill-opacity="1" d=" M117.77999877929688,1.715999960899353 C117.77999877929688,1.715999960899353 111.10099792480469,21.908000946044922 111.10099792480469,21.908000946044922 C111.10099792480469,21.908000946044922 107.90299987792969,38.67599868774414 122.66400146484375,42.935001373291016 C137.4250030517578,47.194000244140625 146.55499267578125,25.878999710083008 146.55499267578125,25.878999710083008 C146.55499267578125,25.878999710083008 153.91099548339844,-2.236999988555908 153.91099548339844,-2.236999988555908 C153.91099548339844,-2.236999988555908 117.77999877929688,1.715999960899353 117.77999877929688,1.715999960899353z"></path><path stroke-linecap="round" stroke-linejoin="round" fill-opacity="0" stroke="rgb(0,0,0)" stroke-opacity="1" stroke-width="2" d=" M117.77999877929688,1.715999960899353 C117.77999877929688,1.715999960899353 111.10099792480469,21.908000946044922 111.10099792480469,21.908000946044922 C111.10099792480469,21.908000946044922 107.90299987792969,38.67599868774414 122.66400146484375,42.935001373291016 C137.4250030517578,47.194000244140625 146.55499267578125,25.878999710083008 146.55499267578125,25.878999710083008 C146.55499267578125,25.878999710083008 153.91099548339844,-2.236999988555908 153.91099548339844,-2.236999988555908 C153.91099548339844,-2.236999988555908 117.77999877929688,1.715999960899353 117.77999877929688,1.715999960899353z"></path></g><g opacity="1" transform="matrix(1,0,0,1,0,0)"><path fill="rgb(255,255,255)" fill-opacity="1" d=" M131.51199340820312,11.635000228881836 C125.16000366210938,12.95199966430664 114.00800323486328,12.319999694824219 108.00900268554688,9.935999870300293 C87.81400299072266,1.9110000133514404 84.427001953125,-18.559999465942383 91.49700164794922,-37.361000061035156 C98.56700134277344,-56.1619987487793 121.64199829101562,-73.1719970703125 139.96200561523438,-66.28299713134766 C158.28199768066406,-59.39400100708008 168.21600341796875,-31.72100067138672 161.14599609375,-12.920000076293945 C159.39199829101562,-8.255000114440918 156.64300537109375,-4.046000003814697 153.22300720214844,-0.4580000042915344"></path><path stroke-linecap="round" stroke-linejoin="round" fill-opacity="0" stroke="rgb(0,0,0)" stroke-opacity="1" stroke-width="2" d=" M131.51199340820312,11.635000228881836 C125.16000366210938,12.95199966430664 114.00800323486328,12.319999694824219 108.00900268554688,9.935999870300293 C87.81400299072266,1.9110000133514404 84.427001953125,-18.559999465942383 91.49700164794922,-37.361000061035156 C98.56700134277344,-56.1619987487793 121.64199829101562,-73.1719970703125 139.96200561523438,-66.28299713134766 C158.28199768066406,-59.39400100708008 168.21600341796875,-31.72100067138672 161.14599609375,-12.920000076293945 C159.39199829101562,-8.255000114440918 156.64300537109375,-4.046000003814697 153.22300720214844,-0.4580000042915344"></path></g><g opacity="1" transform="matrix(1,0,0,1,0,0)"><path fill="rgb(255,255,255)" fill-opacity="1" d=" M111.12699890136719,-32.23699951171875 C108.29000091552734,-27.14299964904785 104.43499755859375,-22.6200008392334 99.8550033569336,-19.01099967956543 C99.14299774169922,-18.450000762939453 98.34100341796875,-17.763999938964844 98.3740005493164,-16.858999252319336 C98.4010009765625,-16.110000610351562 99.00599670410156,-15.519000053405762 99.60600280761719,-15.069999694824219 C101.03600311279297,-13.99899959564209 102.69200134277344,-13.232999801635742 104.43399810791016,-12.838000297546387"></path><path stroke-linecap="round" stroke-linejoin="round" fill-opacity="0" stroke="rgb(0,0,0)" stroke-opacity="1" stroke-width="2" d=" M111.12699890136719,-32.23699951171875 C108.29000091552734,-27.14299964904785 104.43499755859375,-22.6200008392334 99.8550033569336,-19.01099967956543 C99.14299774169922,-18.450000762939453 98.34100341796875,-17.763999938964844 98.3740005493164,-16.858999252319336 C98.4010009765625,-16.110000610351562 99.00599670410156,-15.519000053405762 99.60600280761719,-15.069999694824219 C101.03600311279297,-13.99899959564209 102.69200134277344,-13.232999801635742 104.43399810791016,-12.838000297546387"></path></g><g opacity="1" transform="matrix(1,0,0,1,0,0)"><path stroke-linecap="round" stroke-linejoin="round" fill-opacity="0" stroke="rgb(0,0,0)" stroke-opacity="1" stroke-width="2" d=" M110.2760009765625,-4.171999931335449 C111.75299835205078,-3.941999912261963 113.3010025024414,-4.185999870300293 114.63500213623047,-4.860000133514404 C115.96900177001953,-5.533999919891357 117.08399963378906,-6.635000228881836 117.7760009765625,-7.960000038146973"></path></g><g opacity="1" transform="matrix(1,0,0,1,0,0)"><path fill="rgb(255,255,255)" fill-opacity="1" d=" M118.32499694824219,-30.90999984741211 C119.48300170898438,-31.26799964904785 120.75299835205078,-31.25 121.86499786376953,-30.858999252319336 C122.97699737548828,-30.468000411987305 123.92400360107422,-29.707000732421875 124.50399780273438,-28.738000869750977"></path><path stroke-linecap="round" stroke-linejoin="round" fill-opacity="0" stroke="rgb(0,0,0)" stroke-opacity="1" stroke-width="2" d=" M118.32499694824219,-30.90999984741211 C119.48300170898438,-31.26799964904785 120.75299835205078,-31.25 121.86499786376953,-30.858999252319336 C122.97699737548828,-30.468000411987305 123.92400360107422,-29.707000732421875 124.50399780273438,-28.738000869750977"></path></g><g opacity="1" transform="matrix(1,0,0,1,0,0)"><path fill="rgb(255,255,255)" fill-opacity="1" d=" M102.64800262451172,-38.762001037597656 C103.83999633789062,-38.979000091552734 105.0989990234375,-38.810001373291016 106.15599822998047,-38.28900146484375 C107.21299743652344,-37.768001556396484 108.06300354003906,-36.89899826049805 108.52300262451172,-35.867000579833984"></path><path stroke-linecap="round" stroke-linejoin="round" fill-opacity="0" stroke="rgb(0,0,0)" stroke-opacity="1" stroke-width="2" d=" M102.64800262451172,-38.762001037597656 C103.83999633789062,-38.979000091552734 105.0989990234375,-38.810001373291016 106.15599822998047,-38.28900146484375 C107.21299743652344,-37.768001556396484 108.06300354003906,-36.89899826049805 108.52300262451172,-35.867000579833984"></path></g><g opacity="1" transform="matrix(1,0,0,1,0,0)"><path fill="rgb(0,0,0)" fill-opacity="1" d=" M210.6750030517578,54.86899948120117 C208.15499877929688,59.349998474121094 202.50399780273438,61.3120002746582 197.37899780273438,60.88600158691406 C192.2570037841797,60.45199966430664 187.5290069580078,58.07600021362305 182.9969940185547,55.64699935913086 C178.46800231933594,53.21099853515625 173.87899780273438,50.641998291015625 168.8159942626953,49.78300094604492 C166.45399475097656,49.38399887084961 163.77200317382812,49.54600143432617 161.75399780273438,50.94499969482422 C160.28199768066406,51.96699905395508 150.2570037841797,55.20199966430664 146.85699462890625,55.323001861572266 C138.49200439453125,55.625 132.09300231933594,52.13199996948242 131.20399475097656,43.20000076293945 C130.7030029296875,38.165000915527344 131.656005859375,33.077999114990234 134.281005859375,28.76300048828125 C136.91700744628906,24.444000244140625 140.43699645996094,20.753000259399414 143.36700439453125,16.636999130249023 C150.72300720214844,6.288000106811523 154.29200744628906,-7.214000225067139 152.56900024414062,-19.847000122070312 C152.37399291992188,-21.277000427246094 151.92300415039062,-22.500999450683594 151.24000549316406,-23.507999420166016 C149.97000122070312,-25.375999450683594 147.9010009765625,-26.507999420166016 145.2239990234375,-26.89900016784668 C138.46600341796875,-27.889999389648438 126.66100311279297,-33.5260009765625 130.89300537109375,-42.40299987792969 C131.90199279785156,-44.527000427246094 133.6840057373047,-46.150001525878906 135.70399475097656,-47.39699935913086 C125.59500122070312,-47.792999267578125 119.62699890136719,-45.40999984741211 111.08699798583984,-50.83000183105469 C106.46299743652344,-53.77399826049805 102.04499816894531,-57.694000244140625 100.56199645996094,-62.9640007019043 C98.84200286865234,-69.08100128173828 108.52200317382812,-107.62899780273438 147.3159942626953,-78.65899658203125 C151.64700317382812,-75.42500305175781 156.75100708007812,-78.9530029296875 167.8520050048828,-74.11299896240234 C180.3800048828125,-68.6520004272461 185.30299377441406,-57.91699981689453 184.89100646972656,-45.749000549316406 C184.72500610351562,-40.779998779296875 183.67999267578125,-35.38100051879883 182.95199584960938,-30.46299934387207 C182.09800720214844,-24.67300033569336 181.9199981689453,-18.79800033569336 181.58799743652344,-12.937999725341797 C181.22900390625,-6.760000228881836 180.87399291992188,-0.5049999952316284 182.03399658203125,5.578999996185303 C183.4949951171875,13.258999824523926 187.41600036621094,20.448999404907227 193.0760040283203,25.839000701904297 C196.06199645996094,28.680999755859375 199.48399353027344,31.01300048828125 202.66299438476562,33.632999420166016 C205.8419952392578,36.25299835205078 208.83599853515625,39.25 210.58700561523438,42.97700119018555 C212.34500122070312,46.70600128173828 212.6909942626953,51.27799987792969 210.6750030517578,54.86899948120117z"></path></g><g opacity="1" transform="matrix(1,0,0,1,0,0)"><path fill="rgb(255,255,255)" fill-opacity="1" d=" M147.69200134277344,-25.329999923706055 C147.69200134277344,-25.329999923706055 158.23300170898438,-37.24700164794922 164.3419952392578,-27.410999298095703 C170.4510040283203,-17.575000762939453 162.52499389648438,-7.874000072479248 151.41200256347656,-7.809999942779541"></path><path stroke-linecap="round" stroke-linejoin="round" fill-opacity="0" stroke="rgb(0,0,0)" stroke-opacity="1" stroke-width="2" d=" M147.69200134277344,-25.329999923706055 C147.69200134277344,-25.329999923706055 158.23300170898438,-37.24700164794922 164.3419952392578,-27.410999298095703 C170.4510040283203,-17.575000762939453 162.52499389648438,-7.874000072479248 151.41200256347656,-7.809999942779541"></path></g><g opacity="1" transform="matrix(1,0,0,1,0,0)"><path fill="rgb(255,255,255)" fill-opacity="1" d=" M155,-23.97599983215332 C156.64199829101562,-23.163999557495117 157.81399536132812,-21.469999313354492 157.99400329589844,-19.64699935913086 C158.1739959716797,-17.823999404907227 157.35699462890625,-15.934000015258789 155.906005859375,-14.815999984741211"></path><path stroke-linecap="round" stroke-linejoin="round" fill-opacity="0" stroke="rgb(0,0,0)" stroke-opacity="1" stroke-width="2" d=" M155,-23.97599983215332 C156.64199829101562,-23.163999557495117 157.81399536132812,-21.469999313354492 157.99400329589844,-19.64699935913086 C158.1739959716797,-17.823999404907227 157.35699462890625,-15.934000015258789 155.906005859375,-14.815999984741211"></path></g><g opacity="1" transform="matrix(1,0,0,1,0,0)"><path stroke-linecap="round" stroke-linejoin="round" fill-opacity="0" stroke="rgb(0,0,0)" stroke-opacity="1" stroke-width="2" d=" M248.28900146484375,129.56399536132812 C235.56300354003906,167.9429931640625 148.0919952392578,166.73699951171875 148.0919952392578,166.73699951171875 C148.0919952392578,166.73699951171875 142.9969940185547,120.69599914550781 142.9969940185547,120.69599914550781"></path></g><g opacity="1" transform="matrix(1,0,0,1,0,0)"><path stroke-linecap="round" stroke-linejoin="round" fill-opacity="0" stroke="rgb(0,0,0)" stroke-opacity="1" stroke-width="2" d=" M142.9969940185547,120.69599914550781 C142.9969940185547,120.69599914550781 206.74200439453125,112.39600372314453 206.74200439453125,112.39600372314453 C206.74200439453125,112.39600372314453 177.69000244140625,80.6760025024414 174.4149932861328,64.55899810791016"></path></g></g><g transform="matrix(1,0,0,1,256,256)" opacity="1" style="display: block;"><g opacity="1" transform="matrix(1,0,0,1,0,0)"><path fill="rgb(0,0,0)" fill-opacity="1" d=" M121.56300354003906,-24.010000228881836 C121.01399993896484,-22.273000717163086 119.58699798583984,-21.174999237060547 118.375,-21.558000564575195 C117.16300201416016,-21.94099998474121 116.625,-23.65999984741211 117.17400360107422,-25.39699935913086 C117.7229995727539,-27.134000778198242 119.1500015258789,-28.23200035095215 120.36199951171875,-27.849000930786133 C121.5739974975586,-27.465999603271484 122.11199951171875,-25.746999740600586 121.56300354003906,-24.010000228881836z"></path></g><g opacity="1" transform="matrix(1,0,0,1,0,0)"><path fill="rgb(0,0,0)" fill-opacity="1" d=" M105.03700256347656,-31.524999618530273 C104.28399658203125,-29.865999221801758 102.73600006103516,-28.94700050354004 101.5790023803711,-29.472000122070312 C100.4219970703125,-29.996999740600586 100.09200286865234,-31.76799964904785 100.84500122070312,-33.426998138427734 C101.5979995727539,-35.08599853515625 103.14700317382812,-36.005001068115234 104.30400085449219,-35.47999954223633 C105.46099853515625,-34.95500183105469 105.79000091552734,-33.183998107910156 105.03700256347656,-31.524999618530273z"></path></g></g><g transform="matrix(0.997922956943512,0.06441863626241684,-0.06441863626241684,0.997922956943512,247.99960327148438,254.12991333007812)" opacity="1" style="display: block;"><g opacity="1" transform="matrix(1,0,0,1,0,0)"><path fill="rgb(134,112,197)" fill-opacity="1" d=" M44.736000061035156,-117.04499816894531 C44.736000061035156,-117.04499816894531 43.33300018310547,-81.6989974975586 72.50700378417969,-68.51499938964844 C72.50700378417969,-68.51499938964844 24.257999420166016,-53.08700180053711 24.257999420166016,-53.08700180053711 C24.257999420166016,-53.08700180053711 -0.9879999756813049,-71.60199737548828 7.146999835968018,-117.04499816894531 C7.146999835968018,-117.04499816894531 44.736000061035156,-117.04499816894531 44.736000061035156,-117.04499816894531z"></path></g><g opacity="1" transform="matrix(1,0,0,1,0,0)"><path fill="rgb(0,0,0)" fill-opacity="1" d=" M33.18199920654297,-118.25399780273438 C33.18199920654297,-114.21600341796875 29.909000396728516,-110.94300079345703 25.871000289916992,-110.94300079345703 C21.83300018310547,-110.94300079345703 18.559999465942383,-114.21600341796875 18.559999465942383,-118.25399780273438 C18.559999465942383,-122.29199981689453 21.83300018310547,-125.56500244140625 25.871000289916992,-125.56500244140625 C29.909000396728516,-125.56500244140625 33.18199920654297,-122.29199981689453 33.18199920654297,-118.25399780273438z"></path></g><g opacity="1" transform="matrix(1,0,0,1,0,0)"><g opacity="1" transform="matrix(1,0,0,1,0,0)"><path fill="rgb(255,255,255)" fill-opacity="1" d=" M29.26099967956543,-92.28500366210938 C29.26099967956543,-92.28500366210938 26.332000732421875,-90.83300018310547 26.332000732421875,-90.83300018310547 C26.332000732421875,-90.83300018310547 24.538999557495117,-94.39800262451172 24.538999557495117,-94.39800262451172 C24.538999557495117,-94.39800262451172 29.4689998626709,-97.20800018310547 29.4689998626709,-97.20800018310547 C29.4689998626709,-97.20800018310547 32.20800018310547,-97.75499725341797 32.20800018310547,-97.75499725341797 C32.20800018310547,-97.75499725341797 36.64500045776367,-77.52400207519531 36.64500045776367,-77.52400207519531 C36.64500045776367,-77.52400207519531 32.67900085449219,-76.73300170898438 32.67900085449219,-76.73300170898438 C32.67900085449219,-76.73300170898438 29.26099967956543,-92.28500366210938 29.26099967956543,-92.28500366210938z"></path></g></g></g><g transform="matrix(0.9755595922470093,-0.21973508596420288,0.21973508596420288,0.9755595922470093,229.53958129882812,240.83184814453125)" opacity="1" style="display: block;"><g opacity="1" transform="matrix(1,0,0,1,0,0)"><path fill="rgb(246,83,138)" fill-opacity="1" d=" M-61.749000549316406,119.88500213623047 C-61.749000549316406,119.88500213623047 -63.262001037597656,155.22999572753906 -31.790000915527344,168.41400146484375 C-31.790000915527344,168.41400146484375 -83.83999633789062,183.8419952392578 -83.83999633789062,183.8419952392578 C-83.83999633789062,183.8419952392578 -111.07499694824219,165.3280029296875 -102.29900360107422,119.88500213623047 C-102.29900360107422,119.88500213623047 -61.749000549316406,119.88500213623047 -61.749000549316406,119.88500213623047z"></path></g><g opacity="1" transform="matrix(1,0,0,1,0,0)"><path fill="rgb(0,0,0)" fill-opacity="1" d=" M-73.75299835205078,118.67500305175781 C-73.75299835205078,122.71299743652344 -77.0260009765625,125.98600006103516 -81.06400299072266,125.98600006103516 C-85.10199737548828,125.98600006103516 -88.375,122.71299743652344 -88.375,118.67500305175781 C-88.375,114.63700103759766 -85.10199737548828,111.36399841308594 -81.06400299072266,111.36399841308594 C-77.0260009765625,111.36399841308594 -73.75299835205078,114.63700103759766 -73.75299835205078,118.67500305175781z"></path></g><g opacity="1" transform="matrix(1,0,0,1,0,0)"><g opacity="1" transform="matrix(1,0,0,1,0,0)"><path fill="rgb(255,255,255)" fill-opacity="1" d=" M-82.0989990234375,158.14100646972656 C-82.0989990234375,158.14100646972656 -76.11100006103516,149.62600708007812 -76.11100006103516,149.62600708007812 C-75.53399658203125,148.81100463867188 -75.16000366210938,148.08299255371094 -74.98699951171875,147.43699645996094 C-74.81400299072266,146.79299926757812 -74.87899780273438,146.16000366210938 -75.18099975585938,145.5399932861328 C-75.49199676513672,144.9010009765625 -75.93199920654297,144.4550018310547 -76.50499725341797,144.19900512695312 C-77.0780029296875,143.9429931640625 -77.72100067138672,143.88600158691406 -78.43399810791016,144.0290069580078 C-79.23400115966797,144.18800354003906 -79.8740005493164,144.5500030517578 -80.35299682617188,145.11399841308594 C-80.83200073242188,145.6790008544922 -81.25900268554688,146.3990020751953 -81.63500213623047,147.27099609375 C-81.63500213623047,147.27099609375 -85.38899993896484,145.08799743652344 -85.38899993896484,145.08799743652344 C-85.01200103759766,143.86300659179688 -84.39700317382812,142.82400512695312 -83.54299926757812,141.97000122070312 C-82.69000244140625,141.11599731445312 -81.53299713134766,140.54299926757812 -80.0719985961914,140.2519989013672 C-79.13300323486328,140.06399536132812 -78.20999908447266,140.02699279785156 -77.30500030517578,140.13499450683594 C-76.39900207519531,140.2429962158203 -75.56199645996094,140.4770050048828 -74.79399871826172,140.83099365234375 C-74.0250015258789,141.18699645996094 -73.33499908447266,141.65899658203125 -72.7229995727539,142.24600219726562 C-72.11100006103516,142.83299255371094 -71.61799621582031,143.5070037841797 -71.24600219726562,144.27200317382812 C-70.96299743652344,144.85400390625 -70.76300048828125,145.4239959716797 -70.64600372314453,145.97900390625 C-70.52899932861328,146.53599548339844 -70.51399993896484,147.1020050048828 -70.5979995727539,147.677001953125 C-70.68199920654297,148.25399780273438 -70.875,148.86099243164062 -71.177001953125,149.50100708007812 C-71.47799682617188,150.13999938964844 -71.89600372314453,150.83099365234375 -72.43000030517578,151.5760040283203 C-72.43000030517578,151.5760040283203 -76.0989990234375,156.74099731445312 -76.0989990234375,156.74099731445312 C-76.0989990234375,156.74099731445312 -68.4280014038086,155.21200561523438 -68.4280014038086,155.21200561523438 C-68.4280014038086,155.21200561523438 -67.60600280761719,159.031005859375 -67.60600280761719,159.031005859375 C-67.60600280761719,159.031005859375 -81.30899810791016,161.76300048828125 -81.30899810791016,161.76300048828125 C-81.30899810791016,161.76300048828125 -82.0989990234375,158.14100646972656 -82.0989990234375,158.14100646972656z"></path></g></g></g><g transform="matrix(1,0,0,1,256,256)" opacity="1" style="display: block;"><g opacity="1" transform="matrix(1,0,0,1,0,0)"><path stroke-linecap="butt" stroke-linejoin="miter" fill-opacity="0" stroke-miterlimit="10" stroke="rgb(0,0,0)" stroke-opacity="1" stroke-width="3" d=" M-225.10499572753906,117.36799621582031 C-224.35299682617188,119.17900085449219 -223.43499755859375,120.91899871826172 -222.36399841308594,122.55000305175781 C-216.31700134277344,131.75599670410156 -206.07200622558594,137.656005859375 -195.34500122070312,140.15499877929688 C-184.6179962158203,142.6540069580078 -173.38999938964844,142.03599548339844 -162.5070037841797,140.34100341796875"></path></g></g><g transform="matrix(0,0,0,0,301.135986328125,133.3249969482422)" opacity="1" style="display: block;"><g opacity="1" transform="matrix(1,0,0,1,0,0)"><path fill="rgb(194,249,99)" fill-opacity="1" d=" M63.33000183105469,-130.41400146484375 C63.33000183105469,-130.41400146484375 116.86799621582031,-184.17100524902344 116.86799621582031,-184.17100524902344 C116.86799621582031,-184.17100524902344 139.75999450683594,-139.3070068359375 139.75999450683594,-139.3070068359375 C139.75999450683594,-139.3070068359375 63.33000183105469,-130.41400146484375 63.33000183105469,-130.41400146484375z"></path></g><g opacity="1" transform="matrix(1,0,0,1,0,0)"><path fill="rgb(212,232,232)" fill-opacity="1" d=" M76.25299835205078,-123.05899810791016 C76.25299835205078,-123.05899810791016 109.73699951171875,-126.59400177001953 109.73699951171875,-126.59400177001953 C109.73699951171875,-126.59400177001953 105.39299774169922,-112.31400299072266 105.39299774169922,-112.31400299072266 C105.39299774169922,-112.31400299072266 76.25299835205078,-123.05899810791016 76.25299835205078,-123.05899810791016z"></path></g><g opacity="1" transform="matrix(1,0,0,1,0,0)"><path fill="rgb(255,255,255)" fill-opacity="1" d=" M58.92499923706055,-187.29299926757812 C58.92499923706055,-187.29299926757812 56.986000061035156,-143.30599975585938 56.986000061035156,-143.30599975585938 C56.986000061035156,-143.30599975585938 91.29900360107422,-172.00799560546875 91.29900360107422,-172.00799560546875 C91.29900360107422,-172.00799560546875 58.92499923706055,-187.29299926757812 58.92499923706055,-187.29299926757812z"></path><path stroke-linecap="round" stroke-linejoin="round" fill-opacity="0" stroke="rgb(0,0,0)" stroke-opacity="1" stroke-width="2" d=" M58.92499923706055,-187.29299926757812 C58.92499923706055,-187.29299926757812 56.986000061035156,-143.30599975585938 56.986000061035156,-143.30599975585938 C56.986000061035156,-143.30599975585938 91.29900360107422,-172.00799560546875 91.29900360107422,-172.00799560546875 C91.29900360107422,-172.00799560546875 58.92499923706055,-187.29299926757812 58.92499923706055,-187.29299926757812z"></path></g></g></g></svg>